<svg id="Layer_1" data-name="Layer 1" xmlns="http://www.w3.org/2000/svg" width="271.57" height="258.19" viewBox="0 0 271.57 258.19">
  <title>person</title>
  <path d="M431.5,170.21a33,33,0,0,0-14.75-15.72c-13.65-7.32-33.45-6.81-47.08.42-14.77,7.84-17.67,25.5-18.33,40.68a121.28,121.28,0,0,0,.69,19.9c-3.18,12.55-.89,27.5,11.26,34.37,14.44,8.16,32.89,1,45.66-7.25,7.1-4.59,10.27-11.28,13-19,3.28-9.47,6.84-18.92,9.66-28.54C433.94,186.88,434.93,178.21,431.5,170.21Z" transform="translate(-265.69 -77.29)" style="fill: #eaef18"/>
  <path d="M337.51,242.56a5.23,5.23,0,0,0-6.07,4,24,24,0,0,0-7.12,4.17,116.85,116.85,0,0,0-12,10.38,115.62,115.62,0,0,0-18.09,23.42c-5.13,8.78-10.52,19.24-9.53,29.71,0.37,3.89,1.35,9,5.83,9.9s8.25-3.8,11.27-6.31a281.4,281.4,0,0,0,24.54-22.75c7.79-8.26,17-17.9,21.3-28.57C351.31,257.37,348.57,244.63,337.51,242.56Z" transform="translate(-265.69 -77.29)" style="fill: #eaef18"/>
  <path d="M468.35,323.91a86.63,86.63,0,0,0-3.45-16c-3.39-10.66-8.6-20.69-14.41-30.21-3.28-5.37-6.77-10.6-10.31-15.8-2.88-4.23-5.71-8.66-9.89-11.73-10.13-7.44-19.44-.1-25.44,8.45a4.17,4.17,0,0,0,.84,6c-0.78,10.14,8,18.41,14.51,25.38,2.54,2.73,5.14,5.46,7.63,8.28,4.33,7.76,8.74,15.55,14,22.62,4.28,5.71,14.11,17.6,22.53,14C469,332.81,468.85,328.14,468.35,323.91Z" transform="translate(-265.69 -77.29)" style="fill: #eaef18"/>
  <path d="M537.19,148.25c-0.29-2.78-2.06-4.87-5-5-15.4-.66-31.57,3.51-46.56,6.72a224.63,224.63,0,0,0-22.4,5.89c-5.33,1.73-14.06,3.32-16.28,9.28a7.19,7.19,0,0,0-.41,3.33c-7.1,5.42-3.39,15.47,5,17.18,5.23,1.07,11.14-.32,16.23-1.5,5.84-1.35,11.61-3.1,17.32-4.93a305.28,305.28,0,0,0,32.8-12.67C525.38,163.15,538.27,158.69,537.19,148.25Z" transform="translate(-265.69 -77.29)" style="fill: #eaef18"/>
  <path d="M349.85,161c1.38-2.18,1.26-5.12-1.73-6.51a306.78,306.78,0,0,0-56.18-19.9c-4.71-1.16-9.47-2.31-14.26-3.12-3.42-.58-7.36-0.71-9.9,2.14-5.89,6.59,2,15.06,7.17,19,6.36,4.92,14.07,7.66,21.69,10,9.86,3,19.79,5.73,29.69,8.58,6.56,1.89,17,6.77,22.91.7C352.65,168.34,352.16,164.19,349.85,161Z" transform="translate(-265.69 -77.29)" style="fill: #eaef18"/>
  <path d="M430.44,106.18a27.32,27.32,0,0,0-2.56-13.23c-6.49-13.78-23.49-19.9-37-12.46C376.18,88.54,374.45,107,376.95,122c1,5.89,3.05,15.51,9.13,18.32,0.23,0.11.48,0.18,0.72,0.27,12.65,9.28,30.08,5.56,38.81-7.28C430.86,125.57,432.39,115.47,430.44,106.18Z" transform="translate(-265.69 -77.29)" style="fill: #eaef18"/>
</svg>
